<svg id="Capa_1" enable-background="new 0 0 512 512" height="512" viewBox="0 0 512 512" width="512" xmlns="http://www.w3.org/2000/svg"><g><g><path d="m413.337 325.445c-4.267 0-7.726-3.459-7.726-7.726 0-2.066.177-4.215.364-6.49 1.051-12.786 2.045-24.863-22.933-30.819-9.837-2.356-17.629-1.701-23.162 1.946-7.114 4.687-8.657 13.217-8.672 13.302-.65 4.217-4.593 7.078-8.808 6.427-4.217-.65-7.104-4.628-6.454-8.846.095-.612 2.455-15.073 15.188-23.624 9.276-6.23 21.222-7.654 35.5-4.235 37.874 9.032 35.837 33.806 34.742 47.116-.16 1.95-.312 3.792-.312 5.224-.001 4.266-3.46 7.725-7.727 7.725z" fill="#a0aab7"/></g><g><path d="m98.663 325.445c-4.267 0-7.726-3.459-7.726-7.726 0-1.432-.151-3.274-.312-5.224-1.095-13.309-3.132-38.083 34.749-47.117 14.273-3.419 26.217-1.993 35.493 4.236 12.733 8.551 15.093 23.013 15.188 23.624.65 4.217-2.242 8.163-6.459 8.813-4.195.647-8.127-2.215-8.804-6.401-.051-.283-1.642-8.665-8.671-13.296-5.535-3.647-13.326-4.302-23.155-1.948-24.984 5.958-23.991 18.035-22.94 30.82.187 2.276.364 4.425.364 6.491-.001 4.269-3.46 7.728-7.727 7.728z" fill="#a0aab7"/></g><g><path clip-rule="evenodd" d="m164.509 205.32h-10.561c-30.108 0-32.588-53.907-6.01-53.907h12.253c15.871 15.74 16.951 32.56 4.318 53.907z" fill="#f5a96c" fill-rule="evenodd"/></g><g><path clip-rule="evenodd" d="m347.491 205.32h10.561c30.108 0 32.588-53.907 6.039-53.907h-12.253c-15.9 15.74-16.98 32.56-4.347 53.907z" fill="#f5a96c" fill-rule="evenodd"/></g><g><path clip-rule="evenodd" d="m323.101 184.878c-.583 2.541-1.313 5.11-2.159 7.68-1.079 3.271-2.363 6.57-3.851 9.87-.729 1.635-1.517 3.271-2.363 4.935-2.042 4.03-4.376 8.06-6.943 12.002 11.699-.263 23.573-1.635 35.855-4.176 1.488-3.271 2.772-6.57 3.851-9.87.846-2.57 1.575-5.11 2.159-7.651 1.342-5.636 2.188-11.973 2.188-18.543v-27.713h-26.578v2.278 12.674c0 6.541-.817 12.878-2.159 18.514z" fill="#ffbc85" fill-rule="evenodd"/></g><g><path clip-rule="evenodd" d="m365.987 122.882 22.931-26.749c3.53-4.147-.379-6.132-3.588-10.338-38.89-50.607-105.349-83.868-129.184-85.795-23.865 1.927-90.324 35.188-129.213 85.796-3.209 4.205-7.119 6.191-3.588 10.338l22.931 26.749c3.851 4.468 6.885 5.023 11.874 5.023h195.964c5.017-.001 8.022-.556 11.873-5.024z" fill="#c6d0da" fill-rule="evenodd"/></g><g><path clip-rule="evenodd" d="m275.372 60.39c0-13.754-8.606-24.909-19.226-24.909-10.649 0-19.255 11.155-19.255 24.909s8.606 24.909 19.255 24.909c10.619 0 19.226-11.155 19.226-24.909z" fill="#ffe07d" fill-rule="evenodd"/></g><g><path clip-rule="evenodd" d="m210.634 292.43 45.366 56.038 45.366-56.039v-33.144c-28.649-26.107-56.452-30.75-90.732 0z" fill="#fed1a3" fill-rule="evenodd"/></g><g><path clip-rule="evenodd" d="m110.304 313.543c-65.263 23.42-63.425 128.372-63.425 185.55 0 7.096 5.543 12.907 12.341 12.907h57.619 108.879l-9.132-28.706 25.119-94.118-18.992-34.809-4.843 3.855c-2.538 1.694-5.747.584-7.469-1.957l-41.311-63.835-1.021.38zm12.224 70.143 11.611-10.396c1.43-1.285 1.75-1.051 3.997-1.051l13.041 5.899 13.041-5.899c2.217 0 2.567-.234 3.968 1.051l11.641 10.396c1.109.964 1.78 1.665.963 2.891l-5.922 8.819 5.601 16.003c3.092 8.731.438 13.112-6.156 17.2-6.097 3.738-14.587 10.805-23.135 10.63-8.548.175-17.038-6.892-23.135-10.63-6.593-4.088-9.248-8.469-6.156-17.2l5.601-16.003-5.922-8.819c-.818-1.226-.147-1.927.962-2.891z" fill="#c6d0da" fill-rule="evenodd"/></g><g><path clip-rule="evenodd" d="m465.117 499.092c0 7.098-5.542 12.908-12.331 12.908h-202.967l10.209-140.228 82.878-79.345 1.03.381 57.762 20.738c65.263 23.416 63.419 128.371 63.419 185.546z" fill="#c6d0da" fill-rule="evenodd"/></g><g><path clip-rule="evenodd" d="m376.257 333.225c61.586 23.829 61.732 120.254 61.703 178.775h14.821c6.798 0 12.341-5.811 12.341-12.907 0-57.178 1.838-162.13-63.425-185.55l-57.765-20.733-1.021-.38-14.441 22.31z" fill="#a0aab7" fill-rule="evenodd"/></g><g><path clip-rule="evenodd" d="m161.884 194.019c5.601 23.829 24.448 49.352 48.75 65.267 6.768 4.41 13.945 8.089 21.356 10.776 8.723 3.154 16.367 4.731 24.01 4.731s15.287-1.577 24.01-4.731c7.41-2.687 14.587-6.366 21.356-10.776 24.302-15.915 43.149-41.438 48.75-65.267 1.109-4.76 1.721-9.432 1.721-13.959v-28.647-21.259c-45.745 18.397-142.837 19.682-191.645-.234v21.493 28.647c0 4.526.583 9.199 1.692 13.959z" fill="#ffdecf" fill-rule="evenodd"/></g><g><path clip-rule="evenodd" d="m311.198 158.334c10.678 0 13.479-1.548 21.035-8.965l21.881-21.464c-37.226-9.461-68.151-14.105-97.967-14.28-29.845.175-60.77 4.818-97.997 14.28l2.042 2.015 19.576 19.449c7.527 7.476 10.357 8.965 21.035 8.965l55.197.029z" fill="#918291" fill-rule="evenodd"/></g><g><path clip-rule="evenodd" d="m295.414 483.294-25.119-94.118-15.754-5.285-12.836 5.285-25.119 94.118 9.131 28.706h30.283 30.283z" fill="#918291" fill-rule="evenodd"/></g><g><path clip-rule="evenodd" d="m270.295 389.176 18.993-34.809-33.288-26.515-33.288 26.515 18.993 34.809z" fill="#918291" fill-rule="evenodd"/></g><g><path clip-rule="evenodd" d="m256 327.852 33.288 26.515 4.843 3.855c3.122 1.694 5.806.613 7.469-1.957l41.311-63.836h-41.544z" fill="#a0aab7" fill-rule="evenodd"/></g><g><path clip-rule="evenodd" d="m328.469 314.74 14.441-22.31h-41.544l-45.366 35.422.146.117 18.03-14.105c10.794-3.65 45.132-.672 54.293.876z" fill="#85919e" fill-rule="evenodd"/></g><g><path clip-rule="evenodd" d="m257.167 347.008 14.179 11.301-2.947 5.432-8.986 16.528-4.872 8.907h4.201 11.553l18.993-34.809-6.039-4.818-17.096-13.608-10.007-7.972-.146-.117-10.153 8.089-1.283 1.022 6.039 4.818z" fill="#685d68" fill-rule="evenodd"/></g><g><path clip-rule="evenodd" d="m277.472 487.266-7.848 24.734h16.659l9.131-28.706-25.119-94.118h-11.553-4.201z" fill="#685d68" fill-rule="evenodd"/></g><g><path clip-rule="evenodd" d="m323.597 181.257c0 4.556-.613 9.228-1.721 13.988-4.376 18.631-16.834 38.284-33.667 53.586-4.726 4.264-9.773 8.206-15.083 11.681-6.739 4.41-13.916 8.089-21.356 10.776-2.509.905-4.96 1.694-7.323 2.336 3.939.788 7.76 1.168 11.553 1.168 7.644 0 15.287-1.577 24.01-4.731 7.41-2.687 14.587-6.366 21.356-10.776 24.302-15.915 43.149-41.438 48.75-65.267 1.109-4.76 1.721-9.432 1.721-13.959v-28.647-21.259l-19.605 19.215c-3.472 3.417-5.952 5.578-8.636 6.95v24.939z" fill="#fed1a3" fill-rule="evenodd"/></g><g><path clip-rule="evenodd" d="m287.537 293.072v10.162l13.829-10.805v-33.144c-6.768 4.41-13.945 8.089-21.356 10.776-8.723 3.154-16.367 4.731-24.01 4.731-3.793 0-7.614-.38-11.553-1.168-11.845-2.365-23.719-7.768-33.813-14.338v22.106c21.268 12.615 49.888 16.412 72.148 4.789 5.572-2.892 4.755.029 4.755 6.891z" fill="#ffbc85" fill-rule="evenodd"/></g><g><path clip-rule="evenodd" d="m334.596 123.262c6.331 1.402 12.808 2.949 19.518 4.643 5.018 0 8.023-.555 11.874-5.023l22.931-26.749c3.53-4.147-.379-6.132-3.588-10.338-38.891-50.607-105.35-83.868-129.185-85.795-4.551.35-10.678 1.869-17.855 4.41 29.962 9.695 82.213 40.007 114.918 82.613 3.238 4.176 7.148 6.191 3.588 10.308z" fill="#a0aab7" fill-rule="evenodd"/></g><g><path clip-rule="evenodd" d="m311.198 158.334c5.777 0 9.219-.467 12.399-2.015 2.684-1.372 5.164-3.533 8.636-6.95l19.605-19.215 2.276-2.249c-6.71-1.694-13.187-3.241-19.518-4.643l-.729.847c-16.688 19.478-37.256 26.778-59.195 34.225z" fill="#685d68" fill-rule="evenodd"/></g><g><path clip-rule="evenodd" d="m383.171 418.145v-24.121c0-1.635-1.371-3.008-3.034-3.008h-52.31c-1.663 0-3.005 1.372-3.005 3.008v24.121c0 1.665 1.342 3.008 3.005 3.008h52.31c1.663-.001 3.034-1.344 3.034-3.008z" fill="#ffe07d" fill-rule="evenodd"/></g><g><path clip-rule="evenodd" d="m367.504 394.024v24.121c0 1.665-1.371 3.008-3.005 3.008h15.637c1.663 0 3.034-1.343 3.034-3.008v-24.121c0-1.635-1.371-3.008-3.034-3.008h-15.637c1.634 0 3.005 1.372 3.005 3.008z" fill="#ffc250" fill-rule="evenodd"/></g><g><path d="m109.117 512v-35.799c0-4.275 3.451-7.726 7.726-7.726 4.265 0 7.726 3.451 7.726 7.726v35.799z" fill="#a0aab7"/></g><g><path d="m400.318 476.201v35.799h-15.453v-35.799c0-4.275 3.461-7.726 7.726-7.726 4.266 0 7.727 3.451 7.727 7.726z" fill="#a0aab7"/></g><g><path d="m288.296 202.3c-4.267 0-7.726-3.459-7.726-7.726v-7.038c0-4.267 3.459-7.726 7.726-7.726s7.726 3.459 7.726 7.726v7.038c0 4.267-3.459 7.726-7.726 7.726z" fill="#685d68"/></g><g><path d="m223.295 202.3c-4.267 0-7.726-3.459-7.726-7.726v-7.038c0-4.267 3.459-7.726 7.726-7.726s7.726 3.459 7.726 7.726v7.038c.001 4.267-3.459 7.726-7.726 7.726z" fill="#685d68"/></g><g><path d="m255.728 240.93c-4.658 0-9.222-.944-13.662-2.831-3.927-1.67-5.757-6.206-4.087-10.133s6.207-5.757 10.133-4.087c5.117 2.175 10.207 2.144 16.018-.098 3.978-1.537 8.453.445 9.989 4.427 1.536 3.981-.446 8.453-4.427 9.989-4.722 1.822-9.388 2.733-13.964 2.733z" fill="#685d68"/></g><g><path clip-rule="evenodd" d="m180.468 411.399-5.601-16.032 5.922-8.79c.817-1.227.146-1.927-.963-2.891l-11.641-10.396c-1.4-1.285-1.75-1.051-3.968-1.051l-13.041 5.899-13.041-5.899c-2.246 0-2.567-.234-3.997 1.051l-11.611 10.396c-1.109.964-1.78 1.665-.963 2.891l5.922 8.79-5.601 16.032c-3.092 8.731-.438 13.112 6.156 17.2 6.097 3.738 14.587 10.805 23.135 10.63 8.548.175 17.038-6.892 23.135-10.63 6.594-4.088 9.249-8.469 6.157-17.2z" fill="#ffe07d" fill-rule="evenodd"/></g><g><path clip-rule="evenodd" d="m163.284 408.326c3.063 8.761-12.136 29.063-20.684 28.858-.117 0-.204 0-.321 0 2.888 1.285 5.893 2.103 8.898 2.044 8.548.175 17.038-6.892 23.135-10.63 6.593-4.088 9.248-8.469 6.156-17.2l-5.601-16.003 5.922-8.819c.817-1.227.146-1.927-.963-2.891l-7.016-6.266-11.973 13.92c-.671 1.022-.35 1.548.058 2.687z" fill="#ffc250" fill-rule="evenodd"/></g><g><path clip-rule="evenodd" d="m169.09 292.43 41.311 63.836c1.721 2.541 4.93 3.65 7.469 1.957l4.843-3.855 33.287-26.516-45.366-35.422z" fill="#a0aab7" fill-rule="evenodd"/></g></g></svg>